<?xml version="1.0" standalone="no"?>
<!DOCTYPE svg PUBLIC "-//W3C//DTD SVG 20010904//EN"
 "http://www.w3.org/TR/2001/REC-SVG-20010904/DTD/svg10.dtd">
<svg version="1.0" xmlns="http://www.w3.org/2000/svg"
 width="512.000000pt" height="512.000000pt" viewBox="0 0 512.000000 512.000000"
 preserveAspectRatio="xMidYMid meet">
<metadata>
Created by potrace 1.11, written by Peter Selinger 2001-2013
</metadata>
<g transform="translate(0.000000,512.000000) scale(0.100000,-0.100000)"
fill="#000000" stroke="none">
<path d="M2145 4073 c-3 -16 -13 -41 -20 -58 -7 -16 -38 -97 -68 -180 -30 -82
-175 -472 -322 -865 -147 -393 -279 -749 -294 -790 -16 -41 -51 -136 -78 -210
-71 -188 -269 -719 -304 -813 l-28 -77 182 0 183 0 43 113 c23 61 52 137 63
167 11 30 24 64 28 75 5 11 49 131 99 266 50 136 95 257 100 270 6 13 33 87
61 164 28 77 55 149 60 160 5 11 54 144 110 295 223 602 539 1451 555 1493 7
16 -6 17 -178 17 l-185 0 -7 -27z"/>
<path d="M3658 3892 c-42 -114 -140 -378 -218 -587 -78 -209 -227 -609 -331
-890 -105 -280 -194 -519 -199 -530 -4 -11 -74 -195 -153 -410 l-145 -390 180
-3 c100 -1 183 -1 185 1 3 4 392 1045 422 1132 17 49 94 254 152 405 60 159
279 751 279 756 0 3 6 20 14 37 8 18 56 145 106 282 51 138 96 259 101 270 10
23 49 129 49 133 0 1 -82 2 -182 2 l-183 0 -77 -208z"/>
</g>
</svg>
